<svg xmlns="http://www.w3.org/2000/svg" width="24" height="24" viewBox="0 0 24 24">
    <path fill="#000" fill-rule="evenodd"
          d="M7,21 C5.71666667,21 5,20.1 5,19 L5,7 L19,7 L19,19 C19,20.1 18.2833333,21 17,21 L7,21 Z M8,19 L16,19 C16.9166667,19 17,18.7428571 17,17.8 L17,7 L7,7 L7,17.8 C7,18.7428571 7.08333333,19 8,19 Z M8.46,10.88 L9.87,9.47 L12,11.59 L14.12,9.47 L15.53,10.88 L13.41,13 L15.53,15.12 L14.12,16.53 L12,14.41 L9.88,16.53 L8.47,15.12 L10.59,13 L8.46,10.88 Z M16,4 L20,4 L20,6 L4,6 L4,4 L8,4 L9.14285714,3 L14.8571429,3 L16,4 Z"/>
</svg>
