<svg width="186" height="36" viewBox="0 0 186 36" fill="none" xmlns="http://www.w3.org/2000/svg">
<path d="M29.97 7.20947V15.3614H32.5638C33.1202 15.3614 33.6424 15.2545 34.1303 15.0409C34.6269 14.8273 35.0591 14.5368 35.4272 14.1693C35.8039 13.8018 36.0992 13.3704 36.3133 12.8748C36.5358 12.3791 36.6471 11.8494 36.6471 11.2854C36.6471 10.7129 36.5358 10.1788 36.3133 9.68323C36.0992 9.18762 35.8039 8.75611 35.4272 8.38867C35.0591 8.02124 34.6269 7.73498 34.1303 7.52991C33.6338 7.31629 33.1116 7.20947 32.5638 7.20947H29.97ZM27.2478 23.6414V5.85083C27.2478 5.66284 27.282 5.48768 27.3505 5.32532C27.419 5.15442 27.5131 5.00916 27.633 4.88953C27.7614 4.76135 27.9069 4.66309 28.0696 4.59473C28.2322 4.52637 28.412 4.49219 28.6089 4.49219H32.5638C33.1802 4.49219 33.7751 4.57336 34.3487 4.73572C34.9307 4.89807 35.4744 5.12878 35.9794 5.42786C36.4845 5.72693 36.9467 6.08582 37.3662 6.50451C37.7857 6.91467 38.1409 7.37183 38.432 7.87598C38.7316 8.38013 38.9627 8.92273 39.1254 9.50378C39.2966 10.0763 39.3822 10.6702 39.3822 11.2854C39.3822 13.1482 38.7102 14.7503 37.3662 16.0919C36.0393 17.4164 34.4385 18.0786 32.5638 18.0786H29.97V23.6414C29.97 24.0174 29.8373 24.3378 29.572 24.6027C29.3066 24.8675 28.9855 25 28.6089 25C28.2322 25 27.9112 24.8675 27.6459 24.6027C27.3805 24.3378 27.2478 24.0174 27.2478 23.6414Z" fill="#135CA9"/>
<path d="M55.5741 17.8223C55.5741 19.8217 54.8722 21.5137 53.4682 22.898C52.0472 24.2993 50.3522 25 48.3833 25C46.3974 25 44.7024 24.2993 43.2984 22.898C41.8946 21.4966 41.1926 19.8047 41.1926 17.8223C41.1926 15.8398 41.8946 14.148 43.2984 12.7466C44.7024 11.3452 46.3974 10.6445 48.3833 10.6445C50.3522 10.6445 52.0472 11.3452 53.4682 12.7466C54.1702 13.4473 54.6924 14.2206 55.0348 15.0666C55.3858 15.9125 55.5656 16.8311 55.5741 17.8223ZM48.3833 13.3234C47.7499 13.3234 47.1592 13.443 46.6113 13.6822C46.0635 13.9215 45.5884 14.2463 45.1861 14.6564C44.7837 15.058 44.4627 15.5322 44.223 16.0791C43.9918 16.626 43.8763 17.2071 43.8763 17.8223C43.8763 18.4375 43.9918 19.0186 44.223 19.5655C44.4627 20.1123 44.7837 20.5908 45.1861 21.001C45.5884 21.4026 46.0635 21.723 46.6113 21.9623C47.1592 22.2016 47.7499 22.3212 48.3833 22.3212C49.0083 22.3212 49.5946 22.2016 50.1425 21.9623C50.6903 21.723 51.1654 21.3983 51.5678 20.9881C51.9787 20.578 52.2997 20.1038 52.5309 19.5655C52.7706 19.0186 52.8904 18.4375 52.8904 17.8223C52.8904 17.2071 52.7706 16.6303 52.5309 16.0919C52.2997 15.545 51.9787 15.0666 51.5678 14.6564C51.1654 14.2463 50.6903 13.9215 50.1425 13.6822C49.5946 13.443 49.0083 13.3234 48.3833 13.3234Z" fill="#135CA9"/>
<path d="M72.0101 17.8223C72.0101 19.8217 71.3082 21.5137 69.9043 22.898C68.4832 24.2993 66.7883 25 64.8194 25C62.8334 25 61.1384 24.2993 59.7345 22.898C58.3306 21.4966 57.6287 19.8047 57.6287 17.8223C57.6287 15.8398 58.3306 14.148 59.7345 12.7466C61.1384 11.3452 62.8334 10.6445 64.8194 10.6445C66.7883 10.6445 68.4832 11.3452 69.9043 12.7466C70.6062 13.4473 71.1284 14.2206 71.4708 15.0666C71.8218 15.9125 72.0016 16.8311 72.0101 17.8223ZM64.8194 13.3234C64.1859 13.3234 63.5952 13.443 63.0474 13.6822C62.4995 13.9215 62.0244 14.2463 61.6221 14.6564C61.2198 15.058 60.8988 15.5322 60.659 16.0791C60.4279 16.626 60.3123 17.2071 60.3123 17.8223C60.3123 18.4375 60.4279 19.0186 60.659 19.5655C60.8988 20.1123 61.2198 20.5908 61.6221 21.001C62.0244 21.4026 62.4995 21.723 63.0474 21.9623C63.5952 22.2016 64.1859 22.3212 64.8194 22.3212C65.4443 22.3212 66.0306 22.2016 66.5785 21.9623C67.1264 21.723 67.6015 21.3983 68.0038 20.9881C68.4148 20.578 68.7358 20.1038 68.9669 19.5655C69.2066 19.0186 69.3264 18.4375 69.3264 17.8223C69.3264 17.2071 69.2066 16.6303 68.9669 16.0919C68.7358 15.545 68.4148 15.0666 68.0038 14.6564C67.6015 14.2463 67.1264 13.9215 66.5785 13.6822C66.0306 13.443 65.4443 13.3234 64.8194 13.3234Z" fill="#135CA9"/>
<path d="M74.948 23.667V5.83802C74.948 5.46204 75.0721 5.14587 75.3204 4.88953C75.5772 4.62463 75.8982 4.49219 76.2834 4.49219C76.6687 4.49219 76.9854 4.62463 77.2336 4.88953C77.4905 5.14587 77.6189 5.46204 77.6189 5.83802V22.3212V23.667C77.6189 24.125 77.526 24.3321 77.246 24.6154C76.9584 24.9064 76.6387 25 76.2706 25C75.9025 25 75.59 24.8718 75.3333 24.6154C75.0764 24.3506 74.948 24.0344 74.948 23.667Z" fill="#135CA9"/>
<path d="M83.8619 8.09387C83.8619 8.52967 83.7079 8.90137 83.3997 9.20898C83.0915 9.51661 82.7191 9.67041 82.2826 9.67041C81.8459 9.67041 81.4736 9.51661 81.1654 9.20898C80.8572 8.90137 80.7031 8.52967 80.7031 8.09387C80.7031 7.65808 80.8572 7.28638 81.1654 6.97877C81.4736 6.67114 81.8459 6.51733 82.2826 6.51733C82.7191 6.51733 83.0915 6.67114 83.3997 6.97877C83.7079 7.28638 83.8619 7.65808 83.8619 8.09387ZM80.9472 23.6542V11.9904C80.9472 11.6144 81.0755 11.2982 81.3323 11.0419C81.5977 10.777 81.9145 10.6445 82.2826 10.6445C82.6506 10.6445 82.9631 10.777 83.2199 11.0419C83.4853 11.2982 83.6222 11.6144 83.6308 11.9904V23.6542C83.6222 24.0302 83.4853 24.3506 83.2199 24.6154C82.9631 24.8718 82.6506 25 82.2826 25C81.9145 25 81.5977 24.8718 81.3323 24.6154C81.0755 24.3506 80.9472 24.0302 80.9472 23.6542Z" fill="#135CA9"/>
<path d="M89.0628 11.9647C90.2006 11.0846 91.5409 10.6445 93.0819 10.6445C93.9804 10.6445 94.8324 10.8197 95.6372 11.17C96.4497 11.5204 97.165 11.9989 97.7813 12.6056C98.3975 13.2038 98.8858 13.913 99.2452 14.7333C99.6046 15.545 99.7843 16.4123 99.7843 17.3352V23.6542C99.7843 24.0302 99.6519 24.3506 99.3863 24.6154C99.1295 24.8718 98.8165 25 98.4492 25C98.0723 25 97.7515 24.8718 97.4859 24.6154C97.229 24.3506 97.1002 24.0302 97.1002 23.6542V17.3352C97.1002 16.7883 96.9932 16.2714 96.7793 15.7843C96.5655 15.2972 96.2744 14.8742 95.9063 14.5154C95.5469 14.148 95.1235 13.8574 94.6352 13.6438C94.147 13.4301 93.6298 13.3234 93.0819 13.3234C92.5253 13.3234 92.0028 13.4301 91.5146 13.6438C91.036 13.8489 90.6117 14.1351 90.2435 14.5025C89.8754 14.87 89.5843 15.2972 89.3704 15.7843C89.1653 16.2714 89.0628 16.7883 89.0628 17.3352V23.6542C89.0628 24.0302 88.9295 24.3506 88.6639 24.6154C88.4071 24.8718 88.095 25 87.7269 25C87.3503 25 87.0293 24.8718 86.7639 24.6154C86.5071 24.3506 86.3787 24.0302 86.3787 23.6542V11.9904C86.3787 11.6229 86.5071 11.3068 86.7639 11.0419C87.0293 10.777 87.3503 10.6445 87.7269 10.6445C88.095 10.6445 88.4071 10.777 88.6639 11.0419C88.9295 11.3068 89.0628 11.6144 89.0628 11.9647Z" fill="#135CA9"/>
<path d="M108.991 13.3234C108.357 13.3234 107.767 13.443 107.219 13.6822C106.671 13.9215 106.196 14.2463 105.793 14.6564C105.391 15.058 105.07 15.5322 104.831 16.0791C104.599 16.626 104.484 17.2071 104.484 17.8223C104.484 18.4375 104.599 19.0186 104.831 19.5655C105.07 20.1123 105.391 20.5908 105.793 21.001C106.196 21.4026 106.671 21.723 107.219 21.9623C107.767 22.2016 108.357 22.3212 108.991 22.3212C109.616 22.3212 110.203 22.2016 110.75 21.9623C111.298 21.723 111.773 21.3983 112.176 20.9881C112.587 20.578 112.908 20.1038 113.138 19.5655C113.378 19.0186 113.499 18.4375 113.499 17.8223C113.499 17.2071 113.378 16.6303 113.138 16.0919C112.908 15.545 112.587 15.0666 112.176 14.6564C111.773 14.2463 111.298 13.9215 110.75 13.6822C110.203 13.443 109.616 13.3234 108.991 13.3234ZM113.499 23.4234C112.214 24.4745 110.712 25 108.991 25C107.005 25 105.31 24.2993 103.906 22.898C102.503 21.4966 101.801 19.8047 101.801 17.8223C101.801 15.8398 102.503 14.148 103.906 12.7466C105.31 11.3452 107.005 10.6445 108.991 10.6445C110.96 10.6445 112.655 11.3452 114.076 12.7466C115.48 14.148 116.182 15.8398 116.182 17.8223V24.9487C116.182 25.5639 116.088 26.145 115.9 26.6919C115.711 27.2388 115.45 27.7387 115.116 28.1916C114.782 28.6529 114.388 29.0674 113.935 29.4349C113.481 29.8023 112.988 30.1098 112.458 30.3576C111.936 30.614 111.388 30.8105 110.814 30.9473C110.241 31.084 109.667 31.1523 109.094 31.1523C108.409 31.1523 107.737 31.0626 107.078 30.8832C106.418 30.7123 105.793 30.456 105.203 30.1141C104.613 29.7723 104.069 29.3494 103.572 28.8452C103.085 28.3411 102.669 27.7771 102.326 27.1533C102.19 26.9568 102.121 26.7175 102.121 26.4355C102.121 26.0511 102.25 25.7306 102.506 25.4743C102.763 25.2265 103.085 25.1026 103.47 25.1026C103.726 25.1026 103.936 25.1623 104.099 25.282C104.27 25.4016 104.501 25.6665 104.792 26.0767C105.083 26.4868 105.34 26.7987 105.563 27.0123C106.538 27.9865 107.716 28.4735 109.094 28.4735C110.48 28.4735 111.653 27.995 112.612 27.038C113.203 26.3202 113.499 25.6238 113.499 24.9487V23.4234Z" fill="#135CA9"/>
<path d="M16.1354 13.625C18.7847 13.625 20.9324 11.4704 20.9324 8.8125C20.9324 6.15463 18.7847 4 16.1354 4C13.4861 4 11.3384 6.15463 11.3384 8.8125C11.3384 11.4704 13.4861 13.625 16.1354 13.625Z" fill="#135CA9"/>
<path d="M16.1354 25C18.7847 25 20.9324 22.8454 20.9324 20.1875C20.9324 17.5296 18.7847 15.375 16.1354 15.375C13.4861 15.375 11.3384 17.5296 11.3384 20.1875C11.3384 22.8454 13.4861 25 16.1354 25Z" fill="#135CA9"/>
<path fill-rule="evenodd" clip-rule="evenodd" d="M9.59398 8.8125C9.59398 11.4704 7.4463 13.625 4.79699 13.625C2.14769 13.625 0 11.4704 0 8.8125C0 6.15463 2.14769 4 4.79699 4C7.4463 4 9.59398 6.15463 9.59398 8.8125ZM7.84959 8.8125C7.84959 10.5039 6.48288 11.875 4.79695 11.875C3.11103 11.875 1.74432 10.5039 1.74432 8.8125C1.74432 7.12113 3.11103 5.75 4.79695 5.75C6.48288 5.75 7.84959 7.12113 7.84959 8.8125Z" fill="#135CA9"/>
<path d="M4.79699 25C7.4463 25 9.59398 22.8454 9.59398 20.1875C9.59398 17.5296 7.4463 15.375 4.79699 15.375C2.14769 15.375 0 17.5296 0 20.1875C0 22.8454 2.14769 25 4.79699 25Z" fill="#135CA9"/>
<path fill-rule="evenodd" clip-rule="evenodd" d="M124 0C122.895 0 122 0.895431 122 2V34C122 35.1046 122.895 36 124 36H184C185.105 36 186 35.1046 186 34V2C186 0.895431 185.105 0 184 0H124ZM139.699 11.924C138.568 10.636 137.071 9.992 135.206 9.992C133.981 9.992 133.002 10.216 132.267 10.664C131.532 11.112 130.939 11.6627 130.487 12.316H130.374L130.035 10.272H128V32H130.487V25.84C130.487 25.4853 130.468 25.0653 130.43 24.58C130.392 24.0947 130.355 23.6933 130.317 23.376H130.487C130.92 23.9547 131.513 24.468 132.267 24.916C133.039 25.3453 134.009 25.56 135.177 25.56C137.061 25.56 138.568 24.8973 139.699 23.572C140.848 22.2467 141.422 20.3053 141.422 17.748C141.422 15.1533 140.848 13.212 139.699 11.924ZM131.476 13.352C132.116 12.4933 133.209 12.064 134.754 12.064C136.148 12.064 137.174 12.5773 137.834 13.604C138.512 14.6307 138.851 16.0027 138.851 17.72C138.851 18.84 138.7 19.8387 138.399 20.716C138.116 21.5747 137.674 22.256 137.071 22.76C136.487 23.264 135.733 23.516 134.81 23.516C133.152 23.516 132.013 23.0213 131.391 22.032C130.788 21.024 130.487 19.596 130.487 17.748V17.272C130.524 15.5173 130.854 14.2107 131.476 13.352ZM145.385 25.28H147.872V4H145.385V25.28ZM165.33 25.28V10.272H162.843V18.084C162.843 19.8387 162.513 21.1827 161.854 22.116C161.213 23.0493 160.055 23.516 158.378 23.516C156.136 23.516 155.016 22.3213 155.016 19.932V10.272H152.501V20.1C152.501 22.004 152.962 23.3947 153.885 24.272C154.808 25.1307 156.184 25.56 158.011 25.56C158.991 25.56 159.914 25.3827 160.78 25.028C161.647 24.6547 162.325 24.076 162.815 23.292H162.928L163.295 25.28H165.33ZM178.361 24.44C179.454 23.6933 180 22.592 180 21.136C180 20.3333 179.821 19.6707 179.463 19.148C179.105 18.6067 178.587 18.1493 177.909 17.776C177.231 17.4027 176.411 17.0387 175.451 16.684C174.49 16.3107 173.717 15.9933 173.133 15.732C172.568 15.452 172.163 15.172 171.918 14.892C171.673 14.5933 171.551 14.2387 171.551 13.828C171.551 13.268 171.815 12.8293 172.342 12.512C172.889 12.176 173.67 12.008 174.688 12.008C175.422 12.008 176.138 12.1013 176.835 12.288C177.532 12.4747 178.201 12.6987 178.841 12.96L179.689 11C178.992 10.6827 178.239 10.44 177.429 10.272C176.637 10.0853 175.78 9.992 174.857 9.992C173.162 9.992 171.786 10.3373 170.731 11.028C169.695 11.7187 169.177 12.6987 169.177 13.968C169.177 14.7893 169.366 15.4613 169.742 15.984C170.119 16.5067 170.656 16.9547 171.353 17.328C172.05 17.7013 172.889 18.0747 173.868 18.448C174.867 18.8213 175.63 19.1573 176.157 19.456C176.703 19.7547 177.08 20.0533 177.287 20.352C177.495 20.6507 177.598 20.9867 177.598 21.36C177.598 22.032 177.316 22.5733 176.75 22.984C176.185 23.376 175.272 23.572 174.009 23.572C173.124 23.572 172.248 23.4507 171.381 23.208C170.534 22.9467 169.808 22.6667 169.206 22.368V24.608C169.79 24.9067 170.458 25.14 171.212 25.308C171.984 25.476 172.898 25.56 173.953 25.56C175.799 25.56 177.268 25.1867 178.361 24.44Z" fill="#135CA9"/>
</svg>
